<svg width="300" height="300" viewBox="0 0 300 300" fill="none" xmlns="http://www.w3.org/2000/svg">
<g clip-path="url(#clip0)">
<path d="M176.134 238.124C135.81 263.056 83.1397 250.949 58.4915 211.083C33.8433 171.217 46.551 118.689 86.875 93.7574" stroke="#AB7A48" stroke-width="6"/>
<path d="M165.875 221.53C134.715 240.795 94.0679 231.525 75.086 200.823C56.104 170.122 65.9758 129.616 97.1353 110.351" stroke="#AB7A48" stroke-width="6"/>
<path d="M151.38 205.261C131.218 217.727 104.768 211.488 92.3023 191.326C79.8365 171.164 86.0756 144.714 106.238 132.248" stroke="#AB7A48" stroke-width="6"/>
<path d="M218.676 112.081C245.251 155.063 232.521 211.097 190.244 237.237L94.0075 81.5845C136.285 55.4452 192.101 69.099 218.676 112.081Z" fill="#90A3A7"/>
<circle cx="213.835" cy="115.662" r="20" transform="rotate(148.272 213.835 115.662)" fill="white"/>
<circle cx="249.559" cy="93.5745" r="10" transform="rotate(-31.7277 249.559 93.5745)" fill="white"/>
</g>
<defs>
<clipPath id="clip0">
<rect width="300" height="300" fill="white"/>
</clipPath>
</defs>
</svg>
