<svg width="642" height="54" viewBox="0 0 642 54" fill="none" xmlns="http://www.w3.org/2000/svg">
<g opacity="0.2">
<path d="M3.36591 41.7892C3.36591 43.6861 2.40422 43.9232 0 44.101V46.4127H17.671V44.101C15.2668 43.9232 14.4854 43.6861 14.4854 41.7892V21.6356C15.9881 20.865 17.671 20.3315 19.5944 20.3315C22.7199 20.3315 23.6215 21.8727 23.6215 24.4808V41.7892C23.6215 43.6861 22.8401 43.9232 20.4359 44.101V46.4127H38.1069V44.101C35.7027 43.9232 34.741 43.6861 34.741 41.7892V23.5917C34.741 17.1306 31.4352 13.8705 25.6651 13.8705C20.1955 13.8705 16.7694 16.9528 14.4854 19.798V0H12.6222L0.0601056 2.72667V4.50494L3.36591 6.16466V41.7892Z" fill="#90A3A7"/>
<path d="M55.9662 13.8705C47.311 13.8705 39.9181 20.6279 39.9181 31.1789C39.9181 41.1372 46.6499 47.0055 55.5455 47.0055C63.1188 47.0055 67.7469 42.6784 69.3698 36.1581L68.2278 35.4468C65.9437 38.4105 63.1188 39.7739 59.272 39.7739C53.8024 39.7739 49.8355 35.3875 49.9557 28.3337H69.1293V26.8518C69.1293 19.3238 64.6815 13.8705 55.9662 13.8705ZM55.245 16.36C58.4907 16.36 59.6327 19.8573 59.6327 25.607H50.0158C50.3163 20.0944 51.9392 16.36 55.245 16.36Z" fill="#90A3A7"/>
<path d="M85.626 0H83.7627L71.2006 2.72667V4.50494L74.5064 6.16466V41.7892C74.5064 43.6861 73.5447 43.9232 71.1405 44.101V46.4127H88.9919V44.101C86.5877 43.9232 85.626 43.6861 85.626 41.7892V0Z" fill="#90A3A7"/>
<path d="M105.465 0H103.602L91.0402 2.72667V4.50494L94.346 6.16466V41.7892C94.346 43.6861 93.3843 43.9232 90.98 44.101V46.4127H108.831V44.101C106.427 43.9232 105.465 43.6861 105.465 41.7892V0Z" fill="#90A3A7"/>
<path d="M128.07 44.5159C124.223 44.5159 122.781 38.1734 122.781 28.4523C122.781 20.9243 123.923 16.36 127.529 16.36C131.436 16.36 132.818 22.7025 132.818 32.4237C132.818 39.9517 131.676 44.5159 128.07 44.5159ZM127.769 47.0055C137.627 47.0055 144.599 39.7739 144.599 29.8156C144.599 20.0944 137.747 13.8705 127.829 13.8705C117.972 13.8705 111 21.1021 111 31.0604C111 40.7816 117.852 47.0055 127.769 47.0055Z" fill="#90A3A7"/>
<path d="M182.965 41.8485C189.576 41.8485 197.45 36.2766 197.45 24.4215C197.45 14.1669 189.396 5.39407 175.511 5.39407C160.064 5.39407 148.825 17.3085 148.825 31.6531C148.825 46.2349 159.944 54 172.987 54C180.681 54 186.931 51.629 191.259 47.8353L190.418 46.6498C185.309 49.6729 180.861 51.0955 174.189 51.0955C163.009 51.0955 153.994 44.5752 153.994 31.5346C153.994 18.5532 162.288 7.7651 175.511 7.7651C186.33 7.7651 192.521 15.6487 192.521 24.4215C192.521 33.3721 188.614 39.6553 184.107 39.6553C181.943 39.6553 181.642 37.3436 182.363 34.9133L185.669 23.0582L187.713 17.6048H185.249L180.741 19.5609C179.839 18.3754 177.735 17.1306 174.97 17.1306C166.255 17.1306 159.523 26.1405 159.523 34.2613C159.523 39.0033 162.228 41.8485 165.714 41.8485C170.282 41.8485 173.227 37.6992 176.233 32.2459C175.271 37.2843 176.593 41.8485 182.965 41.8485ZM169.441 36.6323C168.058 36.6323 167.457 35.3282 167.457 33.3721C167.457 27.6224 171.124 19.2053 175.872 19.2053C177.134 19.2053 178.036 19.9166 178.577 21.1021C176.774 29.1636 172.807 36.6323 169.441 36.6323Z" fill="#90A3A7"/>
<path d="M213.246 47.0055C221.361 47.0055 226.59 43.0933 226.59 36.1581C226.59 29.697 222.683 27.2667 215.47 24.8957C211.503 23.5324 209.7 22.5247 209.7 20.0351C209.7 17.7827 211.443 16.36 214.028 16.36C218.235 16.36 220.88 19.798 221.601 23.7102H224.186V16.5971C221.601 14.9374 217.935 13.8705 213.847 13.8705C206.635 13.8705 201.466 17.6048 201.466 24.2437C201.466 30.2898 205.132 33.0757 211.924 35.1504C216.011 36.4544 218.355 37.4621 218.355 40.4852C218.355 43.1526 216.071 44.5159 213.246 44.5159C208.558 44.5159 205.433 40.8408 204.231 35.9802H201.466L201.826 43.9824C204.411 45.82 208.258 47.0055 213.246 47.0055Z" fill="#90A3A7"/>
<path d="M243.093 6.40176H240.748C237.623 10.4918 233.295 13.9297 228.487 15.708V17.6641H231.913V37.2843C231.913 44.2788 235.76 47.0055 241.289 47.0055C246.098 47.0055 249.464 44.8716 251.748 41.1965L250.846 39.8924C249.404 40.8408 248.081 41.3743 246.519 41.3743C244.235 41.3743 243.093 40.1295 243.093 37.2843V17.6641H250.125V14.4632H243.093V6.40176Z" fill="#90A3A7"/>
<path d="M286.346 21.4577L286.647 13.9297H284.663L272.041 16.6564V18.7903L272.942 19.0867C274.806 19.5609 275.226 20.8057 275.226 22.5247V39.5368C273.604 40.2481 272.402 40.7223 270.598 40.7223C267.713 40.7223 266.511 39.0033 266.511 35.9802V21.4577L266.872 13.9297H264.888L252.206 16.6564V18.7903L253.108 19.0867C255.031 19.5609 255.452 20.8057 255.452 22.5247V37.0472C255.452 43.8639 259.178 47.0055 264.528 47.0055C269.877 47.0055 273.063 43.9824 275.226 41.2558L275.046 47.0055H277.15L289.832 44.9308V42.6191L288.39 42.5598C286.466 42.5005 286.346 41.6114 286.346 39.596V21.4577Z" fill="#90A3A7"/>
<path d="M309.514 17.427C312.64 17.427 313.782 19.5609 313.782 23.5324V40.011C312.7 40.6037 311.558 40.8408 310.356 40.8408C305.668 40.8408 303.023 35.8617 303.023 28.5708C303.023 21.8727 305.247 17.427 309.514 17.427ZM313.782 6.16466V15.8858C312.399 14.7596 310.296 14.1076 307.831 14.1076C298.996 14.1076 291.903 20.3315 291.903 31.8902C291.903 41.5521 296.952 47.0055 304.045 47.0055C308.072 47.0055 311.318 45.0494 313.782 41.4336L313.602 47.0055H315.645L328.387 44.9308V42.6191L326.945 42.5598C325.022 42.5005 324.901 41.6114 324.901 39.596V0H323.038L310.476 2.72667V4.50494L313.782 6.16466Z" fill="#90A3A7"/>
<path d="M344.894 13.8705H343.031L330.529 17.3085V18.9682L333.835 20.9835V41.7892C333.835 43.6861 332.873 43.9232 330.469 44.101V46.4127H348.26V44.101C345.856 43.9232 344.894 43.6861 344.894 41.7892V13.8705ZM339.484 11.2623C343.091 11.2623 345.375 8.7135 345.375 5.74973C345.375 2.78595 343.091 0.296378 339.484 0.296378C335.758 0.296378 333.594 2.78595 333.594 5.74973C333.594 8.7135 335.758 11.2623 339.484 11.2623Z" fill="#90A3A7"/>
<path d="M367.553 44.5159C363.706 44.5159 362.264 38.1734 362.264 28.4523C362.264 20.9243 363.406 16.36 367.012 16.36C370.919 16.36 372.301 22.7025 372.301 32.4237C372.301 39.9517 371.159 44.5159 367.553 44.5159ZM367.252 47.0055C377.11 47.0055 384.082 39.7739 384.082 29.8156C384.082 20.0944 377.23 13.8705 367.312 13.8705C357.455 13.8705 350.483 21.1021 350.483 31.0604C350.483 40.7816 357.335 47.0055 367.252 47.0055Z" fill="#90A3A7"/>
<path d="M396.844 27.326C396.844 21.2206 399.008 16.5379 402.734 16.5379C405.619 16.5379 406.581 18.9089 406.581 22.3469C406.581 23.4138 406.521 24.4215 406.341 25.7256H412.051C413.373 25.1328 414.695 23.6509 414.695 21.3985C414.695 16.1822 409.767 13.8705 403.696 13.8705C393.718 13.8705 387.227 21.3985 387.227 31.416C387.227 41.1372 393.658 47.0055 402.013 47.0055C408.745 47.0055 413.613 43.7453 415.597 36.5137L414.275 35.6839C412.351 38.4105 409.827 39.596 406.281 39.596C400.27 39.596 396.844 34.9133 396.844 27.326Z" fill="#90A3A7"/>
<path d="M434.585 44.5159C430.738 44.5159 429.295 38.1734 429.295 28.4523C429.295 20.9243 430.437 16.36 434.044 16.36C437.95 16.36 439.333 22.7025 439.333 32.4237C439.333 39.9517 438.191 44.5159 434.585 44.5159ZM434.284 47.0055C444.141 47.0055 451.114 39.7739 451.114 29.8156C451.114 20.0944 444.262 13.8705 434.344 13.8705C424.487 13.8705 417.515 21.1021 417.515 31.0604C417.515 40.7816 424.367 47.0055 434.284 47.0055Z" fill="#90A3A7"/>
<path d="M467.86 0H465.996L453.434 2.72667V4.50494L456.74 6.16466V41.7892C456.74 43.6861 455.778 43.9232 453.374 44.101V46.4127H471.225V44.101C468.821 43.9232 467.86 43.6861 467.86 41.7892V0Z" fill="#90A3A7"/>
<path d="M487.699 0H485.836L473.274 2.72667V4.50494L476.58 6.16466V41.7892C476.58 43.6861 475.618 43.9232 473.214 44.101V46.4127H491.065V44.101C488.661 43.9232 487.699 43.6861 487.699 41.7892V0Z" fill="#90A3A7"/>
<path d="M507.779 41.1372C504.774 41.1372 503.632 38.8847 503.632 35.8617C503.632 32.483 505.014 31.3568 507.118 30.5862L510.424 29.3414V40.3074C509.462 40.8408 508.741 41.1372 507.779 41.1372ZM521.363 24.1844C521.363 16.4786 516.314 13.8705 507.899 13.8705C500.626 13.8705 494.977 16.36 494.977 21.7541C494.977 23.888 496.179 25.3106 497.922 25.9034L504.593 25.0143C504.293 23.5917 504.052 22.2283 504.052 20.865C504.052 18.079 504.954 16.1822 507.298 16.1822C509.642 16.1822 510.424 18.0198 510.424 20.7464V26.7925L500.867 30.112C496.599 31.5939 492.933 33.7278 492.933 38.8847C492.933 43.9824 496.479 46.8277 501.528 46.8277C505.976 46.8277 508.861 44.5159 510.604 42.0263C511.506 45.1679 514.03 47.0055 517.516 47.0055C520.882 47.0055 523.467 45.7607 525.45 43.8046L525.029 42.2042C524.609 42.382 523.827 42.5598 522.986 42.5598C521.543 42.5598 521.363 41.315 521.363 39.8924V24.1844Z" fill="#90A3A7"/>
<path d="M528.558 6.16466V42.9155C532.465 45.9385 538.476 47.0055 543.945 47.0055C554.043 47.0055 561.917 40.6037 561.917 28.4523C561.917 18.7311 556.868 13.8705 549.775 13.8705C544.666 13.8705 541.361 16.9528 539.678 19.6202V0H537.814L525.252 2.72667V4.50494L528.558 6.16466ZM543.945 44.2195C540.76 44.2195 539.678 41.8485 539.678 38.0549V21.3392C540.76 20.6279 541.962 20.3315 543.224 20.3315C547.792 20.3315 550.617 23.9473 550.617 31.7717C550.617 38.7662 548.273 44.2195 543.945 44.2195Z" fill="#90A3A7"/>
<path d="M563.389 40.9001C563.389 44.5159 566.154 47.0055 569.58 47.0055C573.066 47.0055 575.771 44.5159 575.771 40.9001C575.771 37.2843 573.066 34.7355 569.58 34.7355C566.154 34.7355 563.389 37.2843 563.389 40.9001Z" fill="#90A3A7"/>
<path d="M587.491 27.326C587.491 21.2206 589.655 16.5379 593.382 16.5379C596.267 16.5379 597.228 18.9089 597.228 22.3469C597.228 23.4138 597.168 24.4215 596.988 25.7256H602.698C604.02 25.1328 605.343 23.6509 605.343 21.3985C605.343 16.1822 600.414 13.8705 594.343 13.8705C584.366 13.8705 577.874 21.3985 577.874 31.416C577.874 41.1372 584.306 47.0055 592.66 47.0055C599.392 47.0055 604.261 43.7453 606.244 36.5137L604.922 35.6839C602.998 38.4105 600.474 39.596 596.928 39.596C590.917 39.596 587.491 34.9133 587.491 27.326Z" fill="#90A3A7"/>
<path d="M625.232 44.5159C621.385 44.5159 619.943 38.1734 619.943 28.4523C619.943 20.9243 621.085 16.36 624.691 16.36C628.598 16.36 629.98 22.7025 629.98 32.4237C629.98 39.9517 628.838 44.5159 625.232 44.5159ZM624.931 47.0055C634.789 47.0055 641.761 39.7739 641.761 29.8156C641.761 20.0944 634.909 13.8705 624.991 13.8705C615.134 13.8705 608.162 21.1021 608.162 31.0604C608.162 40.7816 615.014 47.0055 624.931 47.0055Z" fill="#90A3A7"/>
</g>
</svg>
