<svg width="235" height="91" viewBox="0 0 235 91" fill="none" xmlns="http://www.w3.org/2000/svg">
<g clip-path="url(#clip0)">
<g opacity="0.2">
<path d="M2.6511 51.9761C1.76591 51.9761 1.04166 51.6905 0.469419 51.1193C0.156473 50.8604 0 50.6262 0 50.4209C0 50.1085 0.286122 49.8497 0.858366 49.6422C1.43061 49.4347 1.92238 49.1223 2.34039 48.7096C5.76938 45.4408 8.65519 41.8352 10.9933 37.8949C11.5119 36.9109 11.7735 36.2349 11.7735 35.8712C11.7735 34.9898 10.629 34.3673 8.34448 34.0036L7.79906 33.9255C4.15994 33.5105 2.21297 32.0067 1.95368 29.4118C1.95368 25.6768 3.46029 21.5535 6.47574 17.0397C8.0293 14.5497 9.92486 13.3047 12.1602 13.3047C13.4075 13.3047 14.628 13.8491 15.8239 14.9379C16.6554 15.9754 17.0712 17.4012 17.0712 19.2174C17.0712 21.0336 16.8365 22.6401 16.3693 24.0413C15.9021 25.4425 15.3567 26.1431 14.733 26.1431C14.4715 26.1431 14.134 26.0918 13.7204 25.9869C12.576 25.5719 12.0059 24.9248 12.0059 24.0413C12.0059 23.7825 12.2138 23.0819 12.6296 21.9395C13.2533 20.333 13.5662 19.0099 13.5662 17.9702C13.5662 17.399 13.4611 16.8545 13.2533 16.3369C12.681 16.5444 12.2407 16.8032 11.9277 17.1156L11.7712 17.3499C11.1476 17.9724 10.6267 18.6217 10.2132 19.2955C8.13436 22.4594 6.7574 25.8062 6.08233 29.3337L5.92585 30.3445C5.92585 30.6568 6.00409 30.9023 6.16056 31.083C6.31704 31.2659 6.91387 31.4333 7.9533 31.5895C9.61638 31.797 11.1498 32.2633 12.5536 32.9907C14.7353 34.1844 15.8284 35.5588 15.8284 37.114C15.8284 38.1515 15.4126 39.189 14.581 40.2265C12.3457 43.8054 9.56497 47.0986 6.24103 50.1085C4.98925 51.3535 3.79335 51.9761 2.6511 51.9761Z" fill="black"/>
<path d="M24.0096 54.7787C22.5545 54.7787 21.515 53.9732 20.8914 52.3667C20.2163 50.4479 19.8788 45.7534 19.8788 38.2833C19.8788 30.5031 20.2945 22.6693 21.1261 14.7842V14.0836C19.5681 14.396 18.086 14.8355 16.6822 15.4067C16.3201 15.5629 15.9804 15.641 15.6696 15.641C14.8895 15.641 14.2659 15.0966 13.7987 14.0077C13.6422 13.6463 13.564 13.2826 13.564 12.9189C13.564 11.5712 15.7725 10.6118 20.1895 10.0406C21.4882 9.88445 22.2169 9.13476 22.3712 7.78488C22.7869 5.70985 23.4106 3.6616 24.2421 1.63789C24.6579 0.549054 25.2033 0.00463867 25.8784 0.00463867C26.0863 0.00463867 26.3456 0.0559566 26.6585 0.160824C28.1137 0.575829 28.8402 1.3813 28.8402 2.57276C28.8402 3.03909 28.5541 4.25956 27.9818 6.22972C27.6175 7.26723 27.4364 7.96784 27.4364 8.33152C27.4364 8.43639 27.461 8.53903 27.5146 8.64389C27.5661 8.74876 27.8522 8.80008 28.373 8.80008C28.5295 8.74876 28.9698 8.72198 29.6986 8.72198C31.1538 8.72198 32.6604 8.86478 34.2206 9.15038C35.7786 9.43597 36.5588 10.3061 36.5588 11.7564C36.5588 12.4838 36.143 12.8453 35.3115 12.8453H34.9985C33.854 12.6891 32.685 12.611 31.4913 12.611C30.1926 12.611 28.867 12.7159 27.5146 12.9234C26.7345 13.0282 26.2942 13.4165 26.1891 14.0903C24.8904 22.0267 24.2399 31.7793 24.2399 43.3459C24.2399 48.741 24.602 52.0075 25.3307 53.1499C25.4872 53.4087 25.5654 53.643 25.5654 53.8505C25.5677 54.4663 25.0491 54.7787 24.0096 54.7787Z" fill="black"/>
<path d="M45.4467 44.5841C42.3284 44.3766 40.7704 40.9003 40.7704 34.1576V32.8345C40.7704 32.2633 40.719 31.9777 40.6139 31.9777C40.4574 31.9777 40.1199 32.5221 39.6013 33.611C38.0433 36.4647 36.8205 38.513 35.9376 39.758C35.2625 40.7955 34.3796 41.3131 33.2865 41.3131L32.8193 41.235C30.584 40.9227 29.4663 39.4188 29.4663 36.7213C29.4663 31.2749 30.3247 25.9847 32.0392 20.8484C32.3499 19.7596 32.8975 19.2152 33.6754 19.2152C33.9347 19.2152 34.2209 19.2665 34.5338 19.3714C35.7811 19.7351 36.4048 20.6432 36.4048 22.0957C35.5732 25.9356 35.0278 28.8652 34.7685 30.8889C34.7171 30.9402 34.5606 32.1852 34.3013 34.6239C34.5092 34.4678 34.7171 34.2089 34.925 33.8453C35.1329 33.4838 35.2625 33.2741 35.3139 33.2227C39.7309 25.4938 42.0691 21.201 42.3306 20.3464C42.5899 19.4896 43.1108 19.0635 43.8886 19.0635C46.1217 19.3758 47.2416 20.3866 47.2416 22.0979L47.0852 23.0306C45.9407 28.7893 45.3707 33.457 45.3707 37.0359C45.3707 39.7334 45.7328 41.601 46.4615 42.6385C46.7745 42.8973 46.9287 43.1561 46.9287 43.4172C46.9265 44.1958 46.4325 44.5841 45.4467 44.5841Z" fill="black"/>
<path d="M66.0247 47.2304C64.9853 47.2304 64.232 46.7106 63.7648 45.6753C62.7253 43.1852 62.1017 40.0459 61.8938 36.2595C61.8424 35.222 61.7373 34.1577 61.5809 33.0689L59.8664 37.1141C58.4112 40.278 56.5402 41.8599 54.2535 41.8599H53.7863C50.9809 41.4962 49.5771 39.6041 49.5771 36.1792C49.5771 32.288 50.7194 28.216 53.0061 23.9633C54.6156 20.9043 56.5916 19.3737 58.9298 19.3737C59.502 19.3737 60.0988 19.4518 60.7225 19.608C60.9818 19.7129 61.1897 19.7642 61.3461 19.7642C61.6054 19.7642 61.8133 19.5054 61.9698 18.9855C62.7499 16.7565 63.3736 14.059 63.8408 10.8929C64.413 7.21139 65.3228 5.36841 66.5701 5.36841H66.9591C68.5171 5.78341 69.2972 6.61343 69.2972 7.85844C69.2458 8.68845 69.0893 9.46715 68.83 10.1923C67.4262 15.3285 66.6215 20.5407 66.4136 25.8309C66.1521 26.7144 66.0247 29.5146 66.0247 34.2336L66.1029 36.6455C66.1029 39.6019 66.5969 42.5069 67.5849 45.3607C67.7414 45.673 67.8197 45.9319 67.8197 46.1394C67.8174 46.8667 67.2184 47.2304 66.0247 47.2304ZM54.5642 37.6607C54.7206 37.5046 54.8369 37.364 54.9151 37.2324C54.9933 37.1029 55.0582 37.0115 55.1096 36.9601C57.032 33.3813 58.5654 29.673 59.7099 25.8331L60.7225 22.8767C60.7225 22.4104 60.4364 22.1761 59.8641 22.1761L59.4752 22.2542C58.6436 22.8767 58.02 23.6041 57.6042 24.4319C55.5254 28.1156 54.4859 31.902 54.4859 35.791L54.5642 37.6607Z" fill="black"/>
<path d="M74.4429 39.4501C71.6867 39.4501 70.312 36.9868 70.312 32.0581V28.2449C70.312 26.4287 70.4685 24.6929 70.7792 23.0306C70.9871 21.7343 71.5593 21.085 72.4937 21.085C72.8044 21.085 73.1956 21.1899 73.6628 21.3974C74.9615 21.8637 75.612 22.7205 75.612 23.9655L75.5337 24.6661C75.118 27.1561 74.9101 29.6461 74.9101 32.1362C74.9101 33.2786 74.9615 34.4187 75.0666 35.5589L74.9883 35.715C74.9883 36.3889 75.2476 37.0114 75.7684 37.5826C76.0277 37.8949 76.1574 38.1805 76.1574 38.4393C76.1574 39.1132 75.5851 39.4501 74.4429 39.4501ZM74.7536 16.4173C74.13 16.366 73.5845 16.0804 73.1174 15.5605C72.6502 15.0429 72.4155 14.4717 72.4155 13.8492C72.4155 13.3315 72.5585 12.8518 72.8446 12.41C73.1285 11.9705 73.4415 11.6849 73.779 11.5532C74.1165 11.4238 74.4138 11.3591 74.6754 11.3591C74.8318 11.3591 75.0777 11.4104 75.4153 11.5153C75.7528 11.6202 76.0501 11.8277 76.3116 12.1378C76.5709 12.4502 76.7274 12.7358 76.7788 12.9946C76.7788 13.2021 76.6223 13.4877 76.3116 13.8514C75.9987 14.2151 75.8444 14.6301 75.8444 15.0964V15.6408C75.8444 16.1585 75.4823 16.4173 74.7536 16.4173Z" fill="black"/>
<path d="M84.8108 41.7058C83.512 41.7058 82.2647 41.0565 81.0688 39.7602C79.7701 38.2563 79.1196 35.5588 79.1196 31.6676C79.1196 27.6737 80.1322 23.836 82.1597 20.1523C82.9912 18.6998 84.0552 17.9746 85.3562 17.9746C86.4984 17.9746 87.5379 18.5971 88.4745 19.8421C89.9811 22.0733 90.8126 25.5228 90.9691 30.1905C90.9691 31.228 90.864 32.4217 90.6561 33.7694C89.8246 39.0596 87.8754 41.7058 84.8108 41.7058ZM84.965 36.8819C86.2637 34.2357 86.9142 31.5404 86.9142 28.7893C86.9142 27.078 86.6527 25.3398 86.1341 23.575C85.0947 26.48 84.5761 29.4118 84.5761 32.3682C84.5761 33.8742 84.7057 35.3781 84.965 36.8819Z" fill="black"/>
</g>
<path d="M49.718 83.0434C53.48 83.0434 56.158 81.7693 58.1988 78.842L59.6026 79.7323C57.4992 87.4969 52.3333 90.9976 45.1914 90.9976C36.3284 90.9976 29.5039 84.6967 29.5039 74.2569C29.5039 63.5002 36.391 55.4165 46.9775 55.4165C53.4174 55.4165 58.6481 57.8976 58.6481 63.5002C58.6481 65.9188 57.2443 67.5097 55.8428 68.1478H49.785C49.9773 66.7466 50.0399 65.6645 50.0399 64.5199C50.0399 60.8272 49.0206 58.2814 45.9582 58.2814C42.0039 58.2814 39.7082 63.3105 39.7082 69.8658C39.7059 78.0142 43.3428 83.0434 49.718 83.0434Z" fill="black"/>
<path d="M62.5352 73.8775C62.5352 63.1833 69.9319 55.4187 80.391 55.4187C90.9126 55.4187 98.1819 62.1012 98.1819 72.541C98.1819 83.2352 90.7852 90.9998 80.3261 90.9998C69.8044 90.9998 62.5352 84.3174 62.5352 73.8775ZM85.6842 75.3412C85.6842 64.9014 84.2178 58.0917 80.0735 58.0917C76.2467 58.0917 75.0351 62.9937 75.0351 71.0773C75.0351 81.5172 76.5663 88.3269 80.6458 88.3269C84.4727 88.3269 85.6842 83.4249 85.6842 75.3412Z" fill="black"/>
<path d="M106.855 79.8774C109.799 79.8774 112.084 82.0551 112.084 85.1453C112.084 88.2356 109.799 90.3641 106.855 90.3641C103.963 90.3641 101.627 88.2356 101.627 85.1453C101.629 82.0551 103.963 79.8774 106.855 79.8774Z" fill="black"/>
<path d="M132.747 85.3996C132.747 87.4367 133.766 87.691 136.319 87.8829V90.364H117.377V87.8829C119.927 87.691 120.949 87.4367 120.949 85.3996V47.1432L117.442 45.3605V43.4505L130.769 40.5232H132.745V85.3996H132.747Z" fill="black"/>
<path d="M154.906 85.3996C154.906 87.4367 155.925 87.691 158.478 87.8829V90.364H139.538V87.8829C142.089 87.691 143.11 87.4367 143.11 85.3996V47.1432L139.603 45.3605V43.4505L152.93 40.5232H154.906V85.3996Z" fill="black"/>
<path d="M191.062 83.3624C191.062 84.8908 191.254 86.2273 192.783 86.2273C193.675 86.2273 194.505 86.0354 194.952 85.8457L195.399 87.5638C193.295 89.6633 190.553 91.0021 186.98 91.0021C183.281 91.0021 180.603 89.0297 179.646 85.6561C177.798 88.3268 174.738 90.8102 170.019 90.8102C164.663 90.8102 160.901 87.7557 160.901 82.2803C160.901 76.7424 164.79 74.4509 169.319 72.8601L179.459 69.2946V62.8018C179.459 59.8744 178.629 57.8998 176.144 57.8998C173.658 57.8998 172.699 59.9369 172.699 62.929C172.699 64.3926 172.954 65.8563 173.273 67.3847L166.194 68.3397C164.346 67.7038 163.069 66.1754 163.069 63.8839C163.069 58.0917 169.064 55.4187 176.778 55.4187C185.706 55.4187 191.062 58.2189 191.062 66.4944V83.3624V83.3624ZM179.456 83.8064V72.0301L175.949 73.3666C173.718 74.1944 172.25 75.4037 172.25 79.0316C172.25 82.278 173.461 84.6967 176.649 84.6967C177.67 84.6989 178.437 84.3798 179.456 83.8064Z" fill="black"/>
<path d="M196.101 45.3627V43.4527L209.428 40.5254H211.404V61.5947C213.19 58.7298 216.697 55.421 222.118 55.421C229.642 55.421 235 60.6398 235 71.0796C235 84.1277 226.646 91.0021 215.932 91.0021C210.129 91.0021 203.752 89.8575 199.608 86.6111V47.1432L196.101 45.3627ZM223.009 74.6406C223.009 66.2379 220.012 62.3556 215.166 62.3556C213.827 62.3556 212.55 62.6746 211.404 63.4377V81.3878C211.404 85.462 212.553 88.0078 215.93 88.0078C220.524 88.0078 223.009 82.1531 223.009 74.6406Z" fill="black"/>
</g>
<defs>
<clipPath id="clip0">
<rect width="235" height="91" fill="white"/>
</clipPath>
</defs>
</svg>
