<svg width="60" height="31" viewBox="0 0 60 31" fill="none" xmlns="http://www.w3.org/2000/svg">
<path d="M19.7565 22.549C22.7129 22.549 24.8506 21.105 25.7212 17.9025L25.14 17.5351C24.2953 18.7426 23.1871 19.268 21.6294 19.268C18.9906 19.268 17.4859 17.1946 17.4859 13.8341C17.4859 11.13 18.4365 9.05655 20.0729 9.05655C21.34 9.05655 21.7624 10.1061 21.7624 11.6296C21.7624 12.1023 21.7365 12.5481 21.6565 13.1262H24.1635C24.7447 12.8641 25.3247 12.2076 25.3247 11.2095C25.3247 8.89976 23.16 7.87593 20.4941 7.87593C16.1129 7.87593 13.2624 11.2095 13.2624 15.6465C13.2624 19.9502 16.0871 22.549 19.7565 22.549Z" fill="white"/>
<path d="M34.2988 22.549C38.6271 22.549 41.6894 19.3464 41.6894 14.9363C41.6894 10.6315 38.68 7.87476 34.3259 7.87476C29.9976 7.87476 26.9353 11.0773 26.9353 15.4874C26.9353 19.7922 29.9435 22.549 34.2988 22.549ZM34.1929 8.97699C35.9082 8.97699 36.5153 11.7864 36.5153 16.0912C36.5153 19.4248 36.0141 21.4467 34.4306 21.4467C32.7412 21.4467 32.1082 18.6373 32.1082 14.3325C32.1082 10.9977 32.6094 8.97699 34.1929 8.97699Z" fill="white"/>
<path d="M45.2788 22.2857C46.4976 22.2857 47.4424 21.4081 47.4424 20.1339C47.4424 18.8596 46.4965 17.961 45.2788 17.961C44.0812 17.961 43.1153 18.8596 43.1153 20.1339C43.1153 21.4081 44.0824 22.2857 45.2788 22.2857Z" fill="white"/>
<path d="M0 0V30.4225H60V0H0ZM58.8235 29.2524H1.17647V1.1701H58.8235V29.2524Z" fill="white"/>
</svg>
