<svg width="130" height="32" viewBox="0 0 130 32" fill="none" xmlns="http://www.w3.org/2000/svg">
<path d="M12.7877 26.9551C8.75333 26.9551 6.45437 23.7671 6.45437 18.6019C6.45437 14.4453 7.90684 11.2581 10.4078 11.2581C12.3444 11.2581 12.9897 12.8722 12.9897 15.2126C12.9897 15.91 12.9528 16.5704 12.8427 17.4077C12.8357 17.4635 12.8781 17.513 12.9339 17.513H16.6397C16.6539 17.513 16.6673 17.5099 16.6798 17.5044C17.5609 17.0955 18.4357 16.09 18.4357 14.5672C18.4357 11.016 15.1275 9.44206 11.0531 9.44206C4.35663 9.44284 0 14.5672 0 21.3865C0 28.0046 4.31654 31.9992 9.92364 31.9992C14.4217 31.9992 17.6796 29.7995 19.0228 24.9236C19.0338 24.8843 19.0173 24.8418 18.9827 24.8206L18.2274 24.3394C18.1857 24.3127 18.1315 24.3245 18.1024 24.3646C16.8182 26.1697 15.137 26.9551 12.7877 26.9551Z" fill="white"/>
<path d="M32.1917 9.44284C25.5754 9.44284 20.8965 14.3659 20.8965 21.1452C20.8965 27.7633 25.4953 32 32.1516 32C38.7679 32 43.4468 27.0769 43.4468 20.2977C43.4468 13.6796 38.8481 9.44284 32.1917 9.44284ZM32.3536 30.3042C29.7717 30.3042 28.8034 25.9865 28.8034 19.3684C28.8034 14.2433 29.5697 11.1363 31.9905 11.1363C34.6125 11.1363 35.5407 15.454 35.5407 22.0721C35.5407 27.1972 34.7736 30.3042 32.3536 30.3042Z" fill="white"/>
<path d="M48.9344 24.9479C47.1047 24.9479 45.6271 26.3293 45.6271 28.2876C45.6271 30.246 47.1039 31.5959 48.9344 31.5959C50.7964 31.5959 52.2418 30.2468 52.2418 28.2876C52.2418 26.3285 50.7964 24.9479 48.9344 24.9479Z" fill="white"/>
<path d="M65.3124 28.448V0H64.062L55.6309 1.85618V3.0669L57.8497 4.19664V28.448C57.8497 29.7389 57.2044 29.9009 55.5908 30.022V31.5959H67.5721V30.022C65.9577 29.9009 65.3124 29.7397 65.3124 28.448Z" fill="white"/>
<path d="M79.331 28.448V0H78.0805L69.6494 1.85618V3.0669L71.8682 4.19664V28.448C71.8682 29.7389 71.2229 29.9009 69.6093 30.022V31.5959H81.5906V30.022C79.977 29.9009 79.331 29.7397 79.331 28.448Z" fill="white"/>
<path d="M103.294 28.9732C102.325 28.9732 102.204 28.1257 102.204 27.1571V16.4635C102.204 11.218 98.8159 9.44206 93.1679 9.44206C88.2863 9.44206 84.4948 11.1371 84.4948 14.8085C84.4948 16.2614 85.302 17.23 86.4715 17.6333L90.9492 17.0279C90.7472 16.0594 90.586 15.1317 90.586 14.2032C90.586 12.3069 91.1912 11.0152 92.7647 11.0152C94.3382 11.0152 94.8625 12.266 94.8625 14.1222V18.2394L88.4482 20.4989C85.5841 21.5076 83.1233 22.9605 83.1233 26.4708C83.1233 29.941 85.5032 31.8781 88.8923 31.8781C91.8774 31.8781 93.814 30.3042 94.9835 28.61C95.5887 30.7484 97.2833 31.9992 99.6231 31.9992C101.882 31.9992 103.617 31.1517 104.948 29.8199L104.666 28.7303C104.383 28.8521 103.858 28.9732 103.294 28.9732ZM94.8625 27.4394C94.2172 27.8026 93.7331 28.0046 93.0878 28.0046C91.071 28.0046 90.3039 26.4708 90.3039 24.4133C90.3039 22.113 91.2321 21.3464 92.6437 20.8221L94.8625 19.9745V27.4394Z" fill="white"/>
<path d="M121.85 9.44284C118.421 9.44284 116.202 11.5412 115.073 13.3572V0H113.822L105.391 1.85618V3.0669L107.61 4.19664V29.2153C110.232 31.2736 114.266 32 117.938 32C124.715 32 130 27.6422 130 19.37C129.999 12.7511 126.61 9.44284 121.85 9.44284ZM117.937 30.1029C115.799 30.1029 115.073 28.4889 115.073 25.9063V14.5271C115.799 14.0428 116.606 13.8407 117.453 13.8407C120.519 13.8407 122.415 16.3023 122.415 21.6287C122.415 26.3906 120.842 30.1029 117.937 30.1029Z" fill="white"/>
</svg>
