<svg width="700" height="173" viewBox="0 0 700 173" fill="none" xmlns="http://www.w3.org/2000/svg">
<g opacity="0.1">
<path d="M68.8569 145.103C47.1333 145.103 34.7543 127.942 34.7543 100.137C34.7543 77.7613 42.5753 60.6042 56.042 60.6042C66.47 60.6042 69.9446 69.2928 69.9446 81.8919C69.9446 85.6458 69.7456 89.2008 69.1531 93.708C69.1151 94.0085 69.3436 94.2751 69.6441 94.2751H89.5986C89.6748 94.2751 89.7467 94.2582 89.8144 94.2286C94.5587 92.0278 99.269 86.6149 99.269 78.4173C99.269 59.3007 81.456 50.828 59.5166 50.828C23.4587 50.8322 0 78.4173 0 115.127C0 150.753 23.2429 172.256 53.435 172.256C77.6555 172.256 95.1977 160.415 102.43 134.167C102.49 133.956 102.401 133.727 102.215 133.613L98.1475 131.023C97.9232 130.879 97.6312 130.942 97.4746 131.158C90.5593 140.875 81.5068 145.103 68.8569 145.103Z" fill="#90A3A7"/>
<path d="M173.34 50.8322C137.714 50.8322 112.52 77.3339 112.52 113.828C112.52 149.454 137.282 172.261 173.124 172.261C208.75 172.261 233.944 145.759 233.944 109.265C233.944 73.6392 209.182 50.8322 173.34 50.8322ZM174.212 163.132C160.309 163.132 155.095 139.889 155.095 104.263C155.095 76.6737 159.222 59.9482 172.257 59.9482C186.375 59.9482 191.373 83.1911 191.373 118.817C191.373 146.407 187.243 163.132 174.212 163.132Z" fill="#90A3A7"/>
<path d="M263.493 134.298C253.641 134.298 245.684 141.734 245.684 152.277C245.684 162.819 253.636 170.085 263.493 170.085C273.519 170.085 281.302 162.823 281.302 152.277C281.302 141.73 273.519 134.298 263.493 134.298Z" fill="#90A3A7"/>
<path d="M351.682 153.14V0H344.949L299.551 9.99208V16.5096L311.498 22.5912V153.14C311.498 160.089 308.023 160.961 299.335 161.613V170.085H363.85V161.613C355.157 160.961 351.682 160.093 351.682 153.14Z" fill="#90A3A7"/>
<path d="M427.167 153.14V0H420.433L375.035 9.99208V16.5096L386.983 22.5912V153.14C386.983 160.089 383.508 160.961 374.819 161.613V170.085H439.334V161.613C430.645 160.961 427.167 160.093 427.167 153.14Z" fill="#90A3A7"/>
<path d="M556.196 155.967C550.982 155.967 550.33 151.405 550.33 146.191V88.6252C550.33 60.3884 532.086 50.828 501.673 50.828C475.388 50.828 454.972 59.9525 454.972 79.7166C454.972 87.5376 459.318 92.7515 465.616 94.9226L489.726 91.6639C488.639 86.4499 487.771 81.456 487.771 76.4578C487.771 66.2499 491.03 59.2965 499.502 59.2965C507.975 59.2965 510.798 66.0298 510.798 76.0219V98.1856L476.259 110.349C460.838 115.779 447.587 123.6 447.587 142.496C447.587 161.177 460.402 171.605 478.651 171.605C494.724 171.605 505.152 163.132 511.45 154.012C514.708 165.523 523.833 172.256 536.432 172.256C548.595 172.256 557.936 167.694 565.105 160.525L563.585 154.659C562.062 155.315 559.235 155.967 556.196 155.967ZM510.798 147.71C507.323 149.665 504.716 150.753 501.242 150.753C490.382 150.753 486.252 142.496 486.252 131.421C486.252 119.037 491.25 114.911 498.851 112.088L510.798 107.526V147.71Z" fill="#90A3A7"/>
<path d="M656.117 50.8322C637.652 50.8322 625.705 62.1278 619.623 71.904V0H612.89L567.492 9.99208V16.5096L579.439 22.5912V157.27C593.557 168.35 615.281 172.261 635.049 172.261C671.543 172.261 700 148.802 700 104.271C699.996 68.6411 681.747 50.8322 656.117 50.8322ZM635.045 162.049C623.534 162.049 619.623 153.36 619.623 139.457V78.2015C623.534 75.5945 627.876 74.5068 632.438 74.5068C648.948 74.5068 659.156 87.7576 659.156 116.43C659.156 142.064 650.687 162.049 635.045 162.049Z" fill="#90A3A7"/>
</g>
</svg>
